<svg width="640" height="480" xmlns="http://www.w3.org/2000/svg">
 <!-- Created with SVG-edit - http://svg-edit.googlecode.com/ -->
 <g>
  <title>Layer 1</title>
  <path id="svg_1" d="m313.79956,213.32504c45.74939,-131.25005 224.99908,0 0,168.74997c-224.99956,-168.74997 -45.74866,-300.00002 0,-168.74997z" opacity="0.5" stroke-width="5" stroke="#000000" fill="#ffffff"/>
  <path stroke="#f9f2f2" stroke-linecap="round" opacity="0.95" d="m75,272.22305c2.18643,0 6.79477,2.33658 13.11858,-2.65204c6.97404,-5.50156 12.06348,-18.45396 18.58465,-31.82428c7.69787,-15.78285 16.39822,-37.12836 21.8643,-50.38847c7.65251,-18.56418 14.25873,-31.62743 21.8643,-42.43239c5.50064,-7.81461 13.03745,-11.92764 18.58464,-13.26013c6.52736,-1.56796 12.06772,-1.27441 15.30501,0c3.41241,1.34337 5.59274,7.86018 6.5593,15.91216c1.26022,10.49852 1.78044,21.29121 1.09322,39.78036c-1.09766,29.53072 -12.69453,59.84723 -28.42358,84.86479c-10.6617,16.95776 -26.23715,34.47635 -37.1693,45.08444c-10.93215,10.60809 -19.61553,21.53006 -24.05073,26.52023c-7.55286,8.49792 -13.11858,15.91214 -17.49143,23.86823l-3.27965,5.30405" id="svg_5" stroke-linejoin="round" stroke-dasharray="null" stroke-width="5" fill="none"/>
  <path stroke="#f9f2f2" transform="rotate(166.813 280.365 217.612)" id="svg_6" d="m280.36496,215.25533c0.10165,-5.36653 0.5,0 0,6.8997c-0.5,-6.8997 -0.10165,-12.26624 0,-6.8997z" opacity="0.95" stroke-linecap="round" stroke-linejoin="round" stroke-dasharray="null" stroke-width="5" fill="#ffffff"/>
 </g>
</svg>
